<svg width="52" height="61" viewBox="0 0 52 61" fill="none" xmlns="http://www.w3.org/2000/svg">
<g clip-path="url(#clip0_402_51)">
<path d="M49.86 19.23H2.02231C1.6403 19.2295 1.27407 19.0775 1.00394 18.8072C0.73382 18.5369 0.581863 18.1704 0.581421 17.7882V1.64022C0.581864 1.25798 0.733821 0.891516 1.00394 0.621225C1.27407 0.350934 1.6403 0.198884 2.02231 0.198441H49.86C50.242 0.198878 50.6082 0.350924 50.8783 0.621216C51.1485 0.891508 51.3004 1.25797 51.3008 1.64022V17.7882C51.3004 18.1704 51.1485 18.5369 50.8783 18.8072C50.6082 19.0775 50.242 19.2295 49.86 19.23Z" fill="#F6083A"/>
<path d="M20.7539 4.52379H8.07407V5.96557H20.7539V4.52379Z" fill="white"/>
<path d="M37.4683 6.25393C37.9457 6.25393 38.3328 5.86662 38.3328 5.38886C38.3328 4.91109 37.9457 4.52379 37.4683 4.52379C36.9908 4.52379 36.6037 4.91109 36.6037 5.38886C36.6037 5.86662 36.9908 6.25393 37.4683 6.25393Z" fill="white"/>
<path d="M40.3501 6.25393C40.8275 6.25393 41.2146 5.86662 41.2146 5.38886C41.2146 4.91109 40.8275 4.52379 40.3501 4.52379C39.8726 4.52379 39.4855 4.91109 39.4855 5.38886C39.4855 5.86662 39.8726 6.25393 40.3501 6.25393Z" fill="white"/>
<path d="M43.2318 6.25393C43.7093 6.25393 44.0964 5.86662 44.0964 5.38886C44.0964 4.91109 43.7093 4.52379 43.2318 4.52379C42.7544 4.52379 42.3673 4.91109 42.3673 5.38886C42.3673 5.86662 42.7544 6.25393 43.2318 6.25393Z" fill="white"/>
<path d="M49.86 39.7033H2.02231C1.6403 39.7029 1.27407 39.5508 1.00394 39.2805C0.73382 39.0102 0.581863 38.6438 0.581421 38.2615V22.1135C0.581864 21.7313 0.733821 21.3648 1.00394 21.0945C1.27407 20.8243 1.6403 20.6722 2.02231 20.6718H49.86C50.242 20.6722 50.6082 20.8242 50.8783 21.0945C51.1485 21.3648 51.3004 21.7313 51.3008 22.1135V38.2615C51.3004 38.6438 51.1485 39.0102 50.8783 39.2805C50.6082 39.5508 50.242 39.7029 49.86 39.7033Z" fill="#F6083A"/>
<path d="M20.7539 24.9971H8.07407V26.4389H20.7539V24.9971Z" fill="white"/>
<path d="M37.4683 26.7273C37.9457 26.7273 38.3328 26.34 38.3328 25.8622C38.3328 25.3844 37.9457 24.9971 37.4683 24.9971C36.9908 24.9971 36.6037 25.3844 36.6037 25.8622C36.6037 26.34 36.9908 26.7273 37.4683 26.7273Z" fill="white"/>
<path d="M40.3501 26.7273C40.8275 26.7273 41.2146 26.34 41.2146 25.8622C41.2146 25.3844 40.8275 24.9971 40.3501 24.9971C39.8726 24.9971 39.4855 25.3844 39.4855 25.8622C39.4855 26.34 39.8726 26.7273 40.3501 26.7273Z" fill="white"/>
<path d="M43.2318 26.7273C43.7093 26.7273 44.0964 26.34 44.0964 25.8622C44.0964 25.3844 43.7093 24.9971 43.2318 24.9971C42.7544 24.9971 42.3673 25.3844 42.3673 25.8622C42.3673 26.34 42.7544 26.7273 43.2318 26.7273Z" fill="white"/>
<path d="M49.86 60.1766H2.02231C1.6403 60.1762 1.27407 60.0241 1.00394 59.7538C0.73382 59.4836 0.581863 59.1171 0.581421 58.7348V42.5869C0.581864 42.2046 0.733821 41.8382 1.00394 41.5679C1.27407 41.2976 1.6403 41.1455 2.02231 41.1451H49.86C50.242 41.1455 50.6082 41.2976 50.8783 41.5679C51.1485 41.8381 51.3004 42.2046 51.3008 42.5869V58.7348C51.3004 59.1171 51.1485 59.4836 50.8783 59.7539C50.6082 60.0241 50.242 60.1762 49.86 60.1766Z" fill="#F6083A"/>
<path d="M20.7539 45.4704H8.07407V46.9122H20.7539V45.4704Z" fill="white"/>
<path d="M37.4683 47.2006C37.9457 47.2006 38.3328 46.8133 38.3328 46.3355C38.3328 45.8577 37.9457 45.4704 37.4683 45.4704C36.9908 45.4704 36.6037 45.8577 36.6037 46.3355C36.6037 46.8133 36.9908 47.2006 37.4683 47.2006Z" fill="white"/>
<path d="M40.3501 47.2006C40.8275 47.2006 41.2146 46.8133 41.2146 46.3355C41.2146 45.8577 40.8275 45.4704 40.3501 45.4704C39.8726 45.4704 39.4855 45.8577 39.4855 46.3355C39.4855 46.8133 39.8726 47.2006 40.3501 47.2006Z" fill="white"/>
<path d="M43.2318 47.2006C43.7093 47.2006 44.0964 46.8133 44.0964 46.3355C44.0964 45.8577 43.7093 45.4704 43.2318 45.4704C42.7544 45.4704 42.3673 45.8577 42.3673 46.3355C42.3673 46.8133 42.7544 47.2006 43.2318 47.2006Z" fill="white"/>
</g>
<defs>
<clipPath id="clip0_402_51">
<rect width="52" height="61" fill="white"/>
</clipPath>
</defs>
</svg>
