<svg width="110" height="86" viewBox="0 0 110 86" fill="none" xmlns="http://www.w3.org/2000/svg">
<g clip-path="url(#clip0_402_2)">
<path d="M107.63 2.63038e-09H1.94393C1.54138 0.000377808 1.15542 0.165589 0.870778 0.459368C0.586136 0.753147 0.426073 1.15148 0.42572 1.56694V75.4794C0.426073 75.8949 0.586136 76.2932 0.870778 76.587C1.15542 76.8808 1.54138 77.046 1.94393 77.0464H107.63C107.85 77.0464 108.066 76.9972 108.266 76.9023C108.465 76.8073 108.642 76.6689 108.785 76.4965C108.797 76.483 108.808 76.4686 108.818 76.4534C108.908 76.339 108.982 76.2112 109.035 76.0742C109.112 75.8858 109.151 75.6836 109.15 75.4794V1.56695C109.15 1.1512 108.989 0.752628 108.704 0.458814C108.419 0.165 108.033 -2.40567e-05 107.63 2.63038e-09ZM108.717 75.4794C108.717 75.698 108.654 75.9118 108.537 76.094C108.433 76.2543 108.292 76.3852 108.126 76.4749C107.973 76.5567 107.803 76.5992 107.63 76.5989H1.94393C1.65635 76.5986 1.38065 76.4805 1.1773 76.2706C0.973953 76.0607 0.859559 75.7762 0.85921 75.4794V1.56695C0.859559 1.27015 0.973953 0.985608 1.1773 0.775739C1.38065 0.565869 1.65635 0.447807 1.94393 0.447446H107.63C107.918 0.447408 108.194 0.565284 108.398 0.775188C108.601 0.985091 108.716 1.26986 108.717 1.56695V75.4794Z" fill="#3F3D56"/>
<path d="M108.932 6.28023H0.64209V6.72817H108.932V6.28023Z" fill="#3F3D56"/>
<path d="M4.33133 4.70345C5.05045 4.70345 5.63341 4.10179 5.63341 3.35961C5.63341 2.61742 5.05045 2.01576 4.33133 2.01576C3.6122 2.01576 3.02924 2.61742 3.02924 3.35961C3.02924 4.10179 3.6122 4.70345 4.33133 4.70345Z" fill="#3F3D56"/>
<path d="M8.07486 4.70345C8.79398 4.70345 9.37694 4.10179 9.37694 3.35961C9.37694 2.61742 8.79398 2.01576 8.07486 2.01576C7.35573 2.01576 6.77277 2.61742 6.77277 3.35961C6.77277 4.10179 7.35573 4.70345 8.07486 4.70345Z" fill="#3F3D56"/>
<path d="M11.8184 4.70345C12.5375 4.70345 13.1204 4.10179 13.1204 3.35961C13.1204 2.61742 12.5375 2.01576 11.8184 2.01576C11.0992 2.01576 10.5163 2.61742 10.5163 3.35961C10.5163 4.10179 11.0992 4.70345 11.8184 4.70345Z" fill="#3F3D56"/>
<path d="M96.0909 38.7552H11.6465C10.8617 38.7543 10.1094 38.4322 9.55447 37.8595C8.99957 37.2868 8.68744 36.5103 8.68655 35.7004V17.1917C8.68744 16.3818 8.99957 15.6054 9.55447 15.0327C10.1094 14.46 10.8617 14.1378 11.6465 14.1369H96.0909C96.8757 14.1378 97.628 14.46 98.1829 15.0327C98.7378 15.6054 99.0499 16.3818 99.0508 17.1917V35.7004C99.0499 36.5103 98.7378 37.2868 98.1829 37.8595C97.628 38.4322 96.8757 38.7543 96.0909 38.7552ZM11.6465 14.4963C10.954 14.4971 10.2902 14.7814 9.80059 15.2867C9.31097 15.792 9.03556 16.4771 9.03478 17.1917V35.7004C9.03556 36.415 9.31097 37.1002 9.80059 37.6055C10.2902 38.1108 10.954 38.395 11.6465 38.3958H96.0909C96.7833 38.395 97.4472 38.1108 97.9368 37.6055C98.4264 37.1002 98.7018 36.415 98.7026 35.7004V17.1917C98.7018 16.4771 98.4264 15.792 97.9368 15.2867C97.4472 14.7814 96.7833 14.4971 96.0909 14.4963H11.6465Z" fill="#3F3D56"/>
<path d="M30.2765 72.1786H11.6465C10.8617 72.1777 10.1094 71.8556 9.55447 71.2829C8.99957 70.7102 8.68744 69.9337 8.68655 69.1238V55.4669C8.68744 54.657 8.99957 53.8805 9.55447 53.3078C10.1094 52.7352 10.8617 52.413 11.6465 52.4121H30.2765C31.0612 52.413 31.8136 52.7352 32.3685 53.3078C32.9234 53.8805 33.2355 54.657 33.2364 55.4669V69.1238C33.2355 69.9337 32.9234 70.7102 32.3685 71.2829C31.8136 71.8556 31.0612 72.1777 30.2765 72.1786ZM11.6465 52.7715C10.954 52.7723 10.2902 53.0565 9.80059 53.5619C9.31097 54.0672 9.03556 54.7523 9.03478 55.4669V69.1238C9.03556 69.8384 9.31097 70.5236 9.80059 71.0289C10.2902 71.5342 10.954 71.8184 11.6465 71.8193H30.2765C30.9689 71.8184 31.6327 71.5342 32.1224 71.0289C32.612 70.5236 32.8874 69.8384 32.8882 69.1238V55.4669C32.8874 54.7523 32.612 54.0672 32.1224 53.5619C31.6327 53.0565 30.9689 52.7723 30.2765 52.7715H11.6465Z" fill="#3F3D56"/>
<path d="M96.0909 72.1786H77.4609C76.6761 72.1777 75.9238 71.8556 75.3689 71.2829C74.814 70.7102 74.5019 69.9337 74.501 69.1238V55.4669C74.5019 54.657 74.814 53.8805 75.3689 53.3078C75.9238 52.7352 76.6761 52.413 77.4609 52.4121H96.0909C96.8756 52.413 97.628 52.7352 98.1829 53.3078C98.7378 53.8805 99.0499 54.657 99.0508 55.4669V69.1238C99.0499 69.9337 98.7378 70.7102 98.1829 71.2829C97.628 71.8556 96.8756 72.1777 96.0909 72.1786ZM77.4609 52.7715C76.7685 52.7723 76.1046 53.0565 75.615 53.5619C75.1254 54.0672 74.85 54.7523 74.8492 55.4669V69.1238C74.85 69.8384 75.1254 70.5236 75.615 71.0289C76.1046 71.5342 76.7685 71.8184 77.4609 71.8193H96.0909C96.7833 71.8184 97.4472 71.5342 97.9368 71.0289C98.4264 70.5236 98.7018 69.8384 98.7026 69.1238V55.4669C98.7018 54.7523 98.4264 54.0672 97.9368 53.5619C97.4472 53.0565 96.7833 52.7723 96.0909 52.7715H77.4609Z" fill="#3F3D56"/>
<path d="M64.5766 72.1786H45.9466C45.1618 72.1777 44.4095 71.8556 43.8546 71.2829C43.2997 70.7102 42.9875 69.9337 42.9867 69.1238V55.4669C42.9875 54.657 43.2997 53.8805 43.8546 53.3078C44.4095 52.7352 45.1618 52.413 45.9466 52.4121H64.5766C65.3613 52.413 66.1137 52.7352 66.6686 53.3078C67.2235 53.8805 67.5356 54.657 67.5365 55.4669V69.1238C67.5356 69.9337 67.2235 70.7102 66.6686 71.2829C66.1137 71.8556 65.3613 72.1777 64.5766 72.1786ZM45.9466 52.7715C45.2542 52.7723 44.5903 53.0565 44.1007 53.5619C43.6111 54.0672 43.3357 54.7523 43.3349 55.4669V69.1238C43.3357 69.8384 43.6111 70.5236 44.1007 71.0289C44.5903 71.5342 45.2542 71.8184 45.9466 71.8193H64.5766C65.269 71.8184 65.9328 71.5342 66.4225 71.0289C66.9121 70.5236 67.1875 69.8384 67.1883 69.1238V55.4669C67.1875 54.7523 66.9121 54.0672 66.4225 53.5619C65.9328 53.0565 65.269 52.7723 64.5766 52.7715H45.9466Z" fill="#3F3D56"/>
<path d="M9.72261 14.9797L9.63986 15.3287L98.8353 37.8516L98.918 37.5025L9.72261 14.9797Z" fill="#3F3D56"/>
<path d="M98.0129 14.9741L9.64072 37.5692L9.72446 37.918L98.0966 15.323L98.0129 14.9741Z" fill="#3F3D56"/>
<path d="M99.5732 44.9547H15.1287C14.367 44.9538 13.6368 44.6411 13.0982 44.0853C12.5597 43.5294 12.2567 42.7758 12.2559 41.9897V23.481C12.2567 22.695 12.5597 21.9413 13.0982 21.3855C13.6368 20.8296 14.367 20.517 15.1287 20.5161H99.5732C100.335 20.517 101.065 20.8296 101.604 21.3855C102.142 21.9413 102.445 22.695 102.446 23.481V41.9897C102.445 42.7758 102.142 43.5294 101.604 44.0853C101.065 44.6411 100.335 44.9538 99.5732 44.9547Z" fill="#F6083A"/>
<path d="M44.1544 53.2235L43.9402 53.5069L66.2554 71.4725L66.4696 71.1892L44.1544 53.2235Z" fill="#3F3D56"/>
<path d="M66.3669 53.2236L44.3445 71.4108L44.562 71.6914L66.5844 53.5043L66.3669 53.2236Z" fill="#3F3D56"/>
<path d="M9.85414 53.2236L9.63995 53.507L31.9552 71.4727L32.1694 71.1893L9.85414 53.2236Z" fill="#3F3D56"/>
<path d="M32.0667 53.2236L10.0443 71.4108L10.2619 71.6914L32.2843 53.5043L32.0667 53.2236Z" fill="#3F3D56"/>
<path d="M75.6688 53.2234L75.4547 53.5067L97.7699 71.4724L97.9841 71.189L75.6688 53.2234Z" fill="#3F3D56"/>
<path d="M97.8812 53.2236L75.8588 71.4108L76.0763 71.6914L98.0987 53.5043L97.8812 53.2236Z" fill="#3F3D56"/>
<path d="M67.1883 85.2066H48.5582C47.7966 85.2057 47.0664 84.893 46.5278 84.3372C45.9892 83.7813 45.6863 83.0277 45.6854 82.2416V68.5847C45.6863 67.7986 45.9892 67.045 46.5278 66.4891C47.0664 65.9333 47.7966 65.6206 48.5582 65.6197H67.1883C67.9499 65.6206 68.6801 65.9333 69.2187 66.4891C69.7573 67.045 70.0603 67.7986 70.0611 68.5847V82.2416C70.0603 83.0277 69.7573 83.7813 69.2187 84.3372C68.6801 84.893 67.9499 85.2057 67.1883 85.2066Z" fill="#F6083A"/>
<path d="M60.3026 74.4248H55.4274C55.058 74.4248 54.7037 74.2734 54.4425 74.0038C54.1813 73.7342 54.0345 73.3685 54.0345 72.9873C54.0345 72.606 54.1813 72.2404 54.4425 71.9708C54.7037 71.7012 55.058 71.5497 55.4274 71.5497H60.3026C60.672 71.5497 61.0263 71.7012 61.2875 71.9708C61.5487 72.2404 61.6955 72.606 61.6955 72.9873C61.6955 73.3685 61.5487 73.7342 61.2875 74.0038C61.0263 74.2734 60.672 74.4248 60.3026 74.4248Z" fill="white"/>
<path d="M63.1837 79.2766H52.5628C52.1934 79.2766 51.8391 79.1252 51.5779 78.8556C51.3167 78.586 51.1699 78.2203 51.1699 77.8391C51.1699 77.4578 51.3167 77.0921 51.5779 76.8225C51.8391 76.5529 52.1934 76.4015 52.5628 76.4015H63.1837C63.5531 76.4015 63.9074 76.5529 64.1686 76.8225C64.4298 77.0921 64.5766 77.4578 64.5766 77.8391C64.5766 78.2203 64.4298 78.586 64.1686 78.8556C63.9074 79.1252 63.5531 79.2766 63.1837 79.2766Z" fill="white"/>
<path d="M33.2364 74.7842H14.6064C13.8447 74.7833 13.1145 74.4707 12.5759 73.9148C12.0373 73.359 11.7344 72.6053 11.7335 71.8193V58.1624C11.7344 57.3763 12.0373 56.6226 12.5759 56.0668C13.1145 55.5109 13.8447 55.1983 14.6064 55.1974H33.2364C33.9981 55.1983 34.7283 55.5109 35.2669 56.0668C35.8054 56.6226 36.1084 57.3763 36.1092 58.1624V71.8193C36.1084 72.6053 35.8054 73.359 35.2669 73.9148C34.7283 74.4707 33.9981 74.7833 33.2364 74.7842Z" fill="#F6083A"/>
<path d="M26.3507 64.0025H21.4756C21.1062 64.0025 20.7519 63.851 20.4906 63.5814C20.2294 63.3118 20.0827 62.9462 20.0827 62.5649C20.0827 62.1836 20.2294 61.818 20.4906 61.5484C20.7519 61.2788 21.1062 61.1273 21.4756 61.1273H26.3507C26.7201 61.1273 27.0744 61.2788 27.3356 61.5484C27.5969 61.818 27.7436 62.1836 27.7436 62.5649C27.7436 62.9462 27.5969 63.3118 27.3356 63.5814C27.0744 63.851 26.7201 64.0025 26.3507 64.0025Z" fill="white"/>
<path d="M29.2318 68.8543H18.6109C18.2415 68.8543 17.8872 68.7028 17.626 68.4332C17.3648 68.1636 17.218 67.798 17.218 67.4167C17.218 67.0354 17.3648 66.6698 17.626 66.4002C17.8872 66.1306 18.2415 65.9791 18.6109 65.9791H29.2318C29.6012 65.9791 29.9555 66.1306 30.2167 66.4002C30.4779 66.6698 30.6247 67.0354 30.6247 67.4167C30.6247 67.798 30.4779 68.1636 30.2167 68.4332C29.9555 68.7028 29.6012 68.8543 29.2318 68.8543Z" fill="white"/>
<path d="M100.095 79.9954H81.4655C80.7038 79.9945 79.9736 79.6818 79.435 79.126C78.8964 78.5702 78.5935 77.8165 78.5926 77.0304V63.3735C78.5935 62.5875 78.8964 61.8338 79.435 61.278C79.9736 60.7221 80.7038 60.4095 81.4655 60.4086H100.095C100.857 60.4095 101.587 60.7221 102.126 61.278C102.665 61.8338 102.967 62.5875 102.968 63.3735V77.0304C102.967 77.8165 102.665 78.5702 102.126 79.126C101.587 79.6818 100.857 79.9945 100.095 79.9954Z" fill="#F6083A"/>
<path d="M93.2098 69.2137H88.3347C87.9653 69.2137 87.611 69.0622 87.3497 68.7926C87.0885 68.523 86.9418 68.1574 86.9418 67.7761C86.9418 67.3948 87.0885 67.0292 87.3497 66.7596C87.611 66.49 87.9653 66.3385 88.3347 66.3385H93.2098C93.5792 66.3385 93.9335 66.49 94.1947 66.7596C94.456 67.0292 94.6027 67.3948 94.6027 67.7761C94.6027 68.1574 94.456 68.523 94.1947 68.7926C93.9335 69.0622 93.5792 69.2137 93.2098 69.2137Z" fill="white"/>
<path d="M96.0909 74.0654H85.47C85.1006 74.0654 84.7463 73.914 84.4851 73.6444C84.2239 73.3748 84.0771 73.0091 84.0771 72.6279C84.0771 72.2466 84.2239 71.881 84.4851 71.6114C84.7463 71.3418 85.1006 71.1903 85.47 71.1903H96.0909C96.4603 71.1903 96.8146 71.3418 97.0758 71.6114C97.337 71.881 97.4838 72.2466 97.4838 72.6279C97.4838 73.0091 97.337 73.3748 97.0758 73.6444C96.8146 73.914 96.4603 74.0654 96.0909 74.0654Z" fill="white"/>
<path d="M99.5731 45.0446H15.1287C14.344 45.0437 13.5916 44.7215 13.0367 44.1488C12.4818 43.5761 12.1697 42.7997 12.1688 41.9897V23.4811C12.1697 22.6712 12.4818 21.8947 13.0367 21.322C13.5916 20.7493 14.344 20.4272 15.1287 20.4263H99.5731C100.358 20.4272 101.11 20.7493 101.665 21.322C102.22 21.8947 102.532 22.6712 102.533 23.4811V41.9897C102.532 42.7997 102.22 43.5761 101.665 44.1488C101.11 44.7215 100.358 45.0437 99.5731 45.0446ZM15.1287 20.7856C14.4363 20.7865 13.7724 21.0707 13.2828 21.576C12.7932 22.0813 12.5178 22.7665 12.517 23.4811V41.9897C12.5178 42.7044 12.7932 43.3895 13.2828 43.8948C13.7724 44.4001 14.4363 44.6844 15.1287 44.6852H99.5731C100.266 44.6844 100.929 44.4001 101.419 43.8948C101.909 43.3895 102.184 42.7044 102.185 41.9897V23.4811C102.184 22.7665 101.909 22.0813 101.419 21.576C100.929 21.0707 100.266 20.7865 99.5731 20.7856H15.1287Z" fill="#3F3D56"/>
<rect x="17" y="25" width="17" height="16" rx="3" fill="#D9D9D9"/>
<rect x="43" y="26" width="54" height="6" rx="3" fill="#D9D9D9"/>
<rect x="43" y="34" width="38" height="4" rx="2" fill="#D9D9D9" fill-opacity="0.89"/>
</g>
<defs>
<clipPath id="clip0_402_2">
<rect width="110" height="86" fill="white"/>
</clipPath>
</defs>
</svg>
