<svg width="81" height="99" viewBox="0 0 81 99" fill="none" xmlns="http://www.w3.org/2000/svg">
<g clip-path="url(#clip0_402_88)" filter="url(#filter0_d_402_88)">
<path d="M76.6003 21.477H76.1049V7.87338C76.1049 6.83944 75.9018 5.81561 75.507 4.86037C75.1123 3.90513 74.5337 3.03717 73.8044 2.30606C73.075 1.57495 72.2091 0.995003 71.2561 0.599328C70.3031 0.203653 69.2818 5.57405e-07 68.2503 0H39.4977C38.4663 -2.22953e-06 37.4449 0.203646 36.4919 0.599318C35.5389 0.99499 34.673 1.57494 33.9437 2.30605C33.2143 3.03715 32.6357 3.90511 32.241 4.86035C31.8462 5.81559 31.6431 6.83941 31.6431 7.87336V82.5036C31.6431 84.5918 32.4706 86.5944 33.9436 88.071C35.4167 89.5475 37.4145 90.377 39.4977 90.377H68.2502C70.3334 90.377 72.3313 89.5475 73.8043 88.071C75.2774 86.5944 76.1049 84.5918 76.1049 82.5037V31.1602H76.6003V21.477Z" fill="#3F3D56"/>
<path d="M68.5672 2.04838H64.814C64.9866 2.47254 65.0525 2.93274 65.0059 3.38844C64.9592 3.84413 64.8015 4.28135 64.5466 4.66155C64.2917 5.04176 63.9474 5.35329 63.5441 5.56871C63.1408 5.78412 62.6908 5.89681 62.2338 5.89685H45.7619C45.3049 5.89681 44.8549 5.78413 44.4516 5.56871C44.0482 5.35329 43.704 5.04176 43.4491 4.66155C43.1941 4.28135 43.0364 3.84414 42.9898 3.38844C42.9432 2.93274 43.0091 2.47254 43.1817 2.04837H39.6762C38.1205 2.04837 36.6285 2.66785 35.5285 3.77051C34.4284 4.87318 33.8104 6.36871 33.8104 7.92812V82.4489C33.8104 83.221 33.9621 83.9856 34.2569 84.699C34.5517 85.4123 34.9838 86.0605 35.5285 86.6065C36.0731 87.1525 36.7198 87.5856 37.4314 87.8811C38.1431 88.1765 38.9059 88.3286 39.6762 88.3286H68.5672C69.3375 88.3286 70.1002 88.1766 70.8119 87.8811C71.5236 87.5856 72.1702 87.1525 72.7149 86.6065C73.2596 86.0605 73.6917 85.4123 73.9865 84.699C74.2812 83.9856 74.433 83.221 74.433 82.4489V7.92811C74.433 6.36871 73.8149 4.87318 72.7149 3.77051C71.6149 2.66785 70.1229 2.04838 68.5672 2.04838Z" fill="#F6083A"/>
<path d="M54.6768 64.3897C52.5493 64.3917 50.4423 63.9731 48.4764 63.158C46.5105 62.3428 44.7242 61.147 43.2198 59.6391C41.7155 58.1311 40.5225 56.3406 39.7093 54.37C38.8961 52.3994 38.4785 50.2873 38.4805 48.1548C38.4774 45.1602 39.3019 42.2234 40.8625 39.6699C42.423 37.1164 44.6586 35.0461 47.3214 33.6885C49.2516 32.7041 51.3588 32.117 53.5189 31.9616C55.6789 31.8062 57.8482 32.0857 59.8988 32.7836C63.5305 34.0242 66.605 36.5166 68.5747 39.817C70.5444 43.1174 71.2815 47.0115 70.6546 50.8057C70.0277 54.5999 68.0776 58.0479 65.1516 60.5356C62.2255 63.0232 58.5136 64.389 54.6768 64.3897ZM54.6768 32.5565C52.2197 32.5492 49.7967 33.1318 47.6102 34.2555C45.699 35.2315 44.0097 36.593 42.6485 38.2546C41.2872 39.9161 40.2833 41.8418 39.6998 43.9108C39.1162 45.9798 38.9657 48.1473 39.2577 50.2773C39.5496 52.4073 40.2776 54.4539 41.3961 56.2885C42.5146 58.123 43.9994 59.706 45.7573 60.9381C47.5151 62.1701 49.5081 63.0246 51.6111 63.4478C53.714 63.8711 55.8816 63.854 57.9776 63.3976C60.0737 62.9412 62.053 62.0554 63.7913 60.7958C64.6317 60.188 65.4088 59.4968 66.111 58.7327C68.1644 56.5056 69.5254 53.7266 70.0273 50.7361C70.5292 47.7455 70.1503 44.6731 68.9368 41.8951C67.7233 39.1171 65.7281 36.7541 63.1953 35.0955C60.6625 33.4368 57.7022 32.5545 54.6768 32.5565Z" fill="#F0F0F0"/>
<path d="M19.5817 33.7468C20.0262 33.8026 20.4532 33.9556 20.8324 34.1947C21.2117 34.4339 21.534 34.7535 21.7767 35.131C22.0194 35.5085 22.1765 35.9348 22.2371 36.3798C22.2976 36.8248 22.2601 37.2777 22.1271 37.7066L27.5084 42.1997L25.582 46.1436L18.0716 39.6915C17.3676 39.4199 16.7874 38.8988 16.4411 38.227C16.0948 37.5553 16.0063 36.7795 16.1924 36.0468C16.3786 35.314 16.8264 34.6752 17.4511 34.2512C18.0757 33.8273 18.8338 33.6478 19.5817 33.7468Z" fill="#FFB6B6"/>
<path d="M69.84 52.4841C69.7321 51.3212 69.2859 49.2307 68.9074 48.4577C67.7435 45.4043 60.2237 42.8947 59.214 42.5712L58.9578 39.7168L48.5095 38.5899L47.1841 42.2401L43.4368 43.6493C43.1824 43.7444 42.9521 43.8948 42.7625 44.0896C42.5729 44.2844 42.4286 44.5189 42.34 44.7762L38.978 45.7503L35.6604 46.7117L24.1345 38.5708L23.5903 38.9274L19.9531 41.3064L19.392 41.6735L34.3075 55.1623L39.8481 53.8593L44.0148 52.8767L44.3704 54.324L43.4495 59.4089C46.1176 62.0843 49.6494 63.7194 53.4114 64.0208C57.1733 64.3222 60.9194 63.2703 63.9776 61.0536L66.3445 58.9484C67.9942 57.1603 69.2119 55.0162 69.9035 52.6815L69.84 52.4841Z" fill="#E4E4E4"/>
<path d="M57.0164 36.2555C60.9606 34.9465 63.0994 30.6804 61.7935 26.7268C60.4876 22.7732 56.2316 20.6294 52.2874 21.9383C48.3433 23.2473 46.2045 27.5135 47.5104 31.4671C48.8162 35.4206 53.0723 37.5645 57.0164 36.2555Z" fill="#FFB6B6"/>
<path d="M48.7098 20.5003C49.4412 19.4534 50.5387 18.7206 51.7843 18.4476C53.0158 18.1937 54.2977 18.4293 55.3591 19.1048C56.5134 18.6388 57.758 18.3295 58.9807 18.4867C60.2034 18.6439 61.4018 19.3285 61.9676 20.4564C62.0866 20.7486 62.231 21.0297 62.3992 21.2965C62.8977 21.9632 63.824 22.0496 64.6421 22.0816C64.2285 22.3235 63.8148 22.5653 63.401 22.807C63.8133 22.9996 64.2256 23.1922 64.638 23.3848C64.0768 23.5995 63.5157 23.8142 62.9546 24.0289C64.2606 25.1796 64.5765 27.2276 64.0819 28.9446C63.6138 30.5701 62.5404 31.9386 61.3418 33.1101C61.1079 32.236 61.3652 31.2882 61.5365 30.3832C61.7174 29.4269 61.7464 28.3087 61.0784 27.6336C60.6278 27.1781 59.9668 27.0405 59.3435 26.93C56.1998 26.3727 53.0269 25.9951 49.8403 25.799C49.4138 25.7399 48.9794 25.7843 48.5736 25.9286C47.7982 26.274 47.4866 27.2226 47.2619 28.0638C47.1542 26.5874 47.2402 25.1032 47.5177 23.6492C47.7302 22.5364 48.0651 21.4226 48.7098 20.5003Z" fill="#2F2E41"/>
<path d="M58.4877 72.0387H49.5956C49.2868 72.0387 48.9906 71.9158 48.7722 71.6969C48.5538 71.478 48.4312 71.1811 48.4312 70.8715C48.4312 70.5619 48.5538 70.2651 48.7722 70.0462C48.9906 69.8273 49.2868 69.7043 49.5956 69.7043H58.4877C58.7966 69.7043 59.0927 69.8273 59.3111 70.0462C59.5295 70.2651 59.6522 70.5619 59.6522 70.8715C59.6522 71.1811 59.5295 71.478 59.3111 71.6969C59.0927 71.9158 58.7966 72.0387 58.4877 72.0387Z" fill="#E4E4E4"/>
<path d="M29.3092 9.57654H4.85065C4.62526 9.57619 4.40922 9.48619 4.24998 9.32631C4.09073 9.16643 4.00129 8.94974 4.00129 8.72382C4.00129 8.4979 4.09073 8.28121 4.24998 8.12133C4.40922 7.96146 4.62526 7.87146 4.85065 7.8711H29.3092C29.5348 7.8711 29.7512 7.96094 29.9107 8.12086C30.0703 8.28077 30.1599 8.49767 30.1599 8.72382C30.1599 8.94998 30.0703 9.16687 29.9107 9.32679C29.7512 9.4867 29.5348 9.57654 29.3092 9.57654Z" fill="#3F3D56"/>
<path d="M43.4308 15.0228H4.85064C4.62504 15.0228 4.40867 14.933 4.24915 14.7731C4.08962 14.6132 4 14.3963 4 14.1701C4 13.944 4.08962 13.7271 4.24915 13.5672C4.40867 13.4073 4.62504 13.3175 4.85064 13.3175H43.4308C43.6564 13.3175 43.8728 13.4073 44.0323 13.5672C44.1918 13.7271 44.2814 13.944 44.2814 14.1701C44.2814 14.3963 44.1918 14.6132 44.0323 14.7731C43.8728 14.933 43.6564 15.0228 43.4308 15.0228Z" fill="#3F3D56"/>
<path d="M36.0169 20.1537H4.85065C4.62505 20.1537 4.40868 20.0639 4.24915 19.904C4.08963 19.7441 4.00001 19.5272 4.00001 19.3011C4.00001 19.0749 4.08963 18.8581 4.24915 18.6981C4.40868 18.5382 4.62505 18.4484 4.85065 18.4484H36.0169C36.2425 18.4484 36.4589 18.5382 36.6184 18.6981C36.7779 18.8581 36.8676 19.0749 36.8676 19.3011C36.8676 19.5272 36.7779 19.7441 36.6184 19.904C36.4589 20.0639 36.2425 20.1537 36.0169 20.1537Z" fill="#CACACA"/>
<path d="M22.4251 25.2658H4.85065C4.62505 25.2658 4.40868 25.176 4.24915 25.0161C4.08963 24.8562 4.00001 24.6393 4.00001 24.4132C4.00001 24.187 4.08963 23.9701 4.24915 23.8102C4.40868 23.6503 4.62505 23.5605 4.85065 23.5605H22.4251C22.6507 23.5605 22.8671 23.6503 23.0266 23.8102C23.1861 23.9701 23.2757 24.187 23.2757 24.4132C23.2757 24.6393 23.1861 24.8562 23.0266 25.0161C22.8671 25.176 22.6507 25.2658 22.4251 25.2658Z" fill="#CACACA"/>
<path d="M32.1336 30.3775H4.85064C4.62527 30.3771 4.40925 30.2871 4.25002 30.1273C4.09078 29.9674 4.00134 29.7507 4.00134 29.5248C4.00134 29.2989 4.09078 29.0822 4.25002 28.9224C4.40925 28.7625 4.62527 28.6725 4.85064 28.6721H32.1336C32.359 28.6725 32.575 28.7625 32.7342 28.9224C32.8935 29.0822 32.9829 29.2989 32.9829 29.5248C32.9829 29.7507 32.8935 29.9674 32.7342 30.1273C32.575 30.2871 32.359 30.3771 32.1336 30.3775Z" fill="#CACACA"/>
<rect x="44" y="74" width="22" height="3" rx="1.5" fill="#D9D9D9"/>
</g>
<defs>
<filter id="filter0_d_402_88" x="0" y="0" width="81" height="99" filterUnits="userSpaceOnUse" color-interpolation-filters="sRGB">
<feFlood flood-opacity="0" result="BackgroundImageFix"/>
<feColorMatrix in="SourceAlpha" type="matrix" values="0 0 0 0 0 0 0 0 0 0 0 0 0 0 0 0 0 0 127 0" result="hardAlpha"/>
<feOffset dy="4"/>
<feGaussianBlur stdDeviation="2"/>
<feComposite in2="hardAlpha" operator="out"/>
<feColorMatrix type="matrix" values="0 0 0 0 0 0 0 0 0 0 0 0 0 0 0 0 0 0 0.25 0"/>
<feBlend mode="normal" in2="BackgroundImageFix" result="effect1_dropShadow_402_88"/>
<feBlend mode="normal" in="SourceGraphic" in2="effect1_dropShadow_402_88" result="shape"/>
</filter>
<clipPath id="clip0_402_88">
<rect width="73" height="91" fill="white" transform="translate(4)"/>
</clipPath>
</defs>
</svg>
